<?xml version="1.0" encoding="UTF-8" standalone="no"?>
<svg width="234px" height="60px" viewBox="0 0 234 60" version="1.1" xmlns="http://www.w3.org/2000/svg" xmlns:xlink="http://www.w3.org/1999/xlink">
    <!-- Generator: Sketch 49.2 (51160) - http://www.bohemiancoding.com/sketch -->
    <title>plainid-logo-white</title>
    <desc>Created with Sketch.</desc>
    <defs></defs>
    <g id="plainid-logo-white" stroke="none" stroke-width="1" fill="none" fill-rule="evenodd">
        <path d="M96.4651801,27.5159041 C94.2067113,25.2532237 91.5051661,24.1218837 88.3620699,24.1218837 C85.1735984,24.1218837 82.4724346,25.2314452 80.2589597,27.44904 C78.0012535,29.7121024 76.8714471,32.4409208 76.8714471,35.6351132 C76.8714471,38.7865125 78.0012535,41.4920241 80.2589597,43.7550864 C82.5170473,46.0173846 85.2174484,47.1494889 88.3620699,47.1494889 C91.5497788,47.1494889 94.25018,46.0403094 96.4651801,43.8215684 C98.7232677,41.5585061 99.8523115,38.8300697 99.8523115,35.6351132 C99.8523115,32.4856242 98.7232677,29.7785844 96.4651801,27.5159041 Z M98.4574982,45.6845926 C95.7117216,48.4367179 92.3470873,49.8114433 88.3620699,49.8114433 C83.8009008,49.8114433 80.0370403,47.9476549 77.0708695,44.2208425 L77.0708695,60 L74.3479713,60 L74.3479713,21.8588213 L77.0708695,21.8588213 L77.0708695,27.049766 C79.9043462,23.3229535 83.6682067,21.4595473 88.3620699,21.4595473 C92.3470873,21.4595473 95.6899873,22.8132582 98.3915324,25.5191518 C101.136165,28.270895 102.508863,31.6423727 102.508863,35.6351132 C102.508863,39.6282357 101.157899,42.9794631 98.4574982,45.6845926 Z M108.353122,49.344923 L108.353122,2.08386665 L111.009674,2.08386665 L111.009674,49.344923 L108.353122,49.344923 Z M142.078015,49.344923 L142.078015,44.6197344 C139.199544,48.0806189 135.545881,49.8114433 131.118931,49.8114433 C127.134676,49.8114433 123.790632,48.4584965 121.090994,45.7514567 C118.344455,43.0008596 116.972138,39.6282357 116.972138,35.6351132 C116.972138,31.6423727 118.323102,28.2922915 121.023121,25.5856338 C123.76966,22.8350367 127.134676,21.4595473 131.118931,21.4595473 C135.503175,21.4595473 139.156838,23.1899895 142.078015,26.6504919 L142.078015,21.8588213 L144.800913,21.8588213 L144.800913,49.344923 L142.078015,49.344923 Z M139.222804,27.5159041 C136.964716,25.2532237 134.26279,24.1218837 131.118931,24.1218837 C127.930841,24.1218837 125.230821,25.2314452 123.017346,27.44904 C120.757352,29.7121024 119.629833,32.4409208 119.629833,35.6351132 C119.629833,38.7865125 120.757352,41.4920241 123.017346,43.7550864 C125.275434,46.0173846 127.975454,47.1494889 131.118931,47.1494889 C134.307403,47.1494889 137.007422,46.0403094 139.222804,43.8215684 C141.480891,41.5585061 142.610698,38.8300697 142.610698,35.6351132 C142.610698,32.4856242 141.480891,29.7785844 139.222804,27.5159041 Z M154.786144,14.8071449 C154.786144,15.9992358 153.821443,16.9658994 152.631391,16.9658994 C151.441719,16.9658994 150.477017,15.9992358 150.477017,14.8071449 C150.477017,13.6146718 151.441719,12.6480084 152.631391,12.6480084 C153.821443,12.6480084 154.786144,13.6146718 154.786144,14.8071449 Z M151.200734,49.344923 L151.200734,21.8588213 L153.924014,21.8588213 L153.924014,49.344923 L151.200734,49.344923 Z M178.954011,49.344923 L178.954011,32.9062947 C178.954011,27.0944694 176.340928,24.1883657 171.117433,24.1883657 C168.549344,24.1883657 166.601639,24.9433566 165.272029,26.4510459 C163.899712,27.9598815 163.213745,30.0231159 163.213745,32.6403668 L163.213745,49.344923 L160.490847,49.344923 L160.490847,21.8588213 L163.213745,21.8588213 L163.213745,25.1867418 C164.452223,22.7467762 167.088184,21.5260293 171.117433,21.5260293 C174.527061,21.5260293 177.137856,22.5026268 178.954011,24.4542936 C180.770166,26.4071067 181.676909,29.1359251 181.676909,32.6403668 L181.676909,49.344923 L178.954011,49.344923 Z M188.315427,49.344923 L190.381338,9.83169361 L198.342983,9.83169361 L196.276692,49.344923 L188.315427,49.344923 Z M201.932206,9.83169361 L216.483945,9.83169361 C219.766598,9.83169361 222.254994,10.0834846 223.951038,10.5859204 C226.227429,11.2690801 228.145392,12.4825675 229.704167,14.2252364 C231.262941,15.9682873 232.407237,18.1022065 233.13591,20.6262298 C233.863821,23.1510172 234.132641,26.2645907 233.93932,29.9661859 C233.768877,33.2188365 233.218654,36.0213965 232.288651,38.3757761 C231.1516,41.249785 229.621042,43.5774191 227.700409,45.3567675 C226.247637,46.703601 224.328912,47.7547044 221.940036,48.5093132 C220.153241,49.0671506 217.790676,49.344923 214.84929,49.344923 L199.865915,49.344923 L201.932206,9.83169361 Z M209.54534,16.5158085 L208.176074,42.6875537 L214.120617,42.6875537 C216.344387,42.6875537 217.955782,42.5622313 218.955563,42.3108224 C220.263438,41.9872003 221.36274,41.4385328 222.256138,40.6663483 C223.147247,39.8937816 223.909476,38.622218 224.540154,36.8524214 C225.169307,35.0826249 225.566627,32.6705511 225.726393,29.6154361 C225.885398,26.560703 225.737833,24.2158754 225.286368,22.5801891 C224.833759,20.945267 224.148173,19.6695005 223.227322,18.7532716 C222.30647,17.8370427 221.110698,17.2169262 219.638861,16.893304 C218.540703,16.6418951 216.368791,16.5158085 213.123505,16.5158085 L209.54534,16.5158085 Z M32.3258846,11.6844016 C41.3464144,13.0457541 48.2617598,20.8443977 48.2617598,30.2622982 C48.2617598,39.6805807 41.3464144,47.4788422 32.3258846,48.8401948 L32.3258846,11.6844016 Z M25.0620265,11.382176 C25.0620265,17.0774668 20.4547195,21.6945267 14.7706075,21.6945267 C9.08725813,21.6945267 4.47995115,17.0774668 4.47995115,11.382176 C4.47995115,5.68726717 9.08725813,1.07058936 14.7706075,1.07058936 C20.4547195,1.07058936 25.0620265,5.68726717 25.0620265,11.382176 Z M32.6892682,0 C47.4926679,1.5890725 59.0221839,14.142707 59.0221839,29.3980322 C59.0221839,45.7292959 45.8095882,58.969147 29.5110919,58.969147 C27.101245,58.969147 24.7611769,58.6737988 22.5191042,58.1274237 L22.5191042,29.8229058 L5.33674324,29.8229058 C5.33674324,29.8229058 4.61989004,35.0421244 6.96682163,42.0578852 C8.34752664,46.185118 10.8427858,50.3891489 13.9279237,53.6460025 C15.0645936,54.8464991 16.2527396,55.7126755 17.3722507,56.3499856 C7.13078275,51.7107651 0,41.391919 0,29.3980322 C0,27.8926354 0.114010162,26.4147483 0.330591339,24.9697201 L27.6041862,24.9697201 L27.6041862,54.280256 C28.2196123,54.3272518 28.8388514,54.3589646 29.4664793,54.3589646 C42.7972795,54.3589646 53.6042227,43.529659 53.6042227,30.1705989 C53.6042227,17.9088738 44.4952301,7.78412455 32.6892682,6.20460407 L32.6892682,0 Z" id="logo" fill="#FFFFFF" fill-rule="nonzero"></path>
    </g>
</svg>